<svg width="18" height="13" viewBox="0 0 18 13" fill="none" xmlns="http://www.w3.org/2000/svg">
<path d="M2.01116 0H16.346C17.2595 0 18 0.727526 18 1.625V11.375C18 12.2725 17.2595 13 16.346 13H2.01116C1.09766 13 0.357143 12.2725 0.357143 11.375V1.625C0.357143 0.727526 1.09766 0 2.01116 0ZM2.01116 1.625V3.00642C2.78379 3.62456 4.01556 4.58575 6.64886 6.61155C7.22917 7.06002 8.37872 8.13742 9.17857 8.12486C9.97829 8.13756 11.1282 7.05985 11.7083 6.61155C14.3412 4.58606 15.5732 3.62466 16.346 3.00642V1.625H2.01116ZM16.346 11.375V5.0916C15.5564 5.70947 14.4367 6.57651 12.73 7.88951C11.9768 8.47197 10.6578 9.75779 9.17857 9.74997C7.7066 9.75779 6.40434 8.49063 5.6275 7.88978C3.92083 6.57682 2.80078 5.70954 2.01116 5.09163V11.375H16.346Z" fill="black" fill-opacity="0.7"/>
</svg>
