<svg width="13" height="10" viewBox="0 0 13 10" fill="none" xmlns="http://www.w3.org/2000/svg">
<path d="M12.8201 5.39169L8.48653 9.72524C8.09961 10.1122 7.42894 9.84131 7.42894 9.28672V6.81041H3.92083C3.57776 6.81041 3.30175 6.5344 3.30175 6.19133V3.71502C3.30175 3.37195 3.57776 3.09594 3.92083 3.09594H7.42894V0.619627C7.42894 0.0676155 8.09703 -0.205811 8.48653 0.181113L12.8201 4.51466C13.06 4.75713 13.06 5.14922 12.8201 5.39169ZM4.95263 9.59626V8.56447C4.95263 8.39422 4.81333 8.25493 4.64309 8.25493H2.47631C2.01974 8.25493 1.65088 7.88606 1.65088 7.42949V2.47686C1.65088 2.02029 2.01974 1.65142 2.47631 1.65142H4.64309C4.81333 1.65142 4.95263 1.51213 4.95263 1.34188V0.310088C4.95263 0.139841 4.81333 0.000548622 4.64309 0.000548622H2.47631C1.10918 0.000548622 0 1.10973 0 2.47686V7.42949C0 8.79662 1.10918 9.9058 2.47631 9.9058H4.64309C4.81333 9.9058 4.95263 9.76651 4.95263 9.59626Z" fill="#9C9C9C"/>
</svg>
